<?xml version="1.0" encoding="UTF-8" standalone="no"?>
<!DOCTYPE svg PUBLIC "-//W3C//DTD SVG 1.1//EN" "http://www.w3.org/Graphics/SVG/1.1/DTD/svg11.dtd">
<svg xmlns="http://www.w3.org/2000/svg" version="1.1" viewBox="0.00 0.00 1024.00 559.00">
<g stroke-width="2.00" fill="none" stroke-linecap="butt">
<path stroke="#858584" vector-effect="non-scaling-stroke" d="
  M 268.17 278.47
  C 267.54 412.74 375.77 526.20 510.97 526.83
  C 646.17 527.47 755.46 415.02 756.08 280.75
  C 756.71 146.49 648.48 33.02 513.28 32.39
  C 378.08 31.76 268.79 144.21 268.17 278.47"
/>
<path stroke="#484847" vector-effect="non-scaling-stroke" d="
  M 976.62 511.58
  C 973.35 514.85 969.87 516.28 965.73 517.80
  Q 965.54 517.87 965.54 518.22
  Q 965.54 518.57 965.73 518.64
  C 969.86 520.16 973.35 521.60 976.61 524.87
  C 979.87 528.13 981.31 531.62 982.83 535.75
  Q 982.90 535.95 983.25 535.95
  Q 983.60 535.95 983.67 535.75
  C 985.19 531.62 986.63 528.13 989.89 524.87
  C 993.16 521.61 996.64 520.18 1000.78 518.66
  Q 1000.97 518.59 1000.97 518.24
  Q 1000.97 517.89 1000.78 517.81
  C 996.65 516.29 993.16 514.86 989.90 511.59
  C 986.64 508.32 985.20 504.84 983.68 500.71
  Q 983.61 500.51 983.26 500.51
  Q 982.91 500.51 982.84 500.70
  C 981.32 504.84 979.88 508.32 976.62 511.58"
/>
<path stroke="#8d97b0" vector-effect="non-scaling-stroke" d="
  M 349.61 259.92
  Q 344.26 304.60 360.94 345.83"
/>
<path stroke="#90a8c1" vector-effect="non-scaling-stroke" d="
  M 360.94 345.83
  C 376.06 382.35 403.35 410.28 438.72 428.03
  Q 472.41 444.93 510.23 446.61
  C 563.92 449.00 615.41 425.30 649.35 383.93
  A 0.81 0.81 0.0 0 0 649.29 382.84
  L 598.09 332.58
  A 1.01 1.01 0.0 0 0 596.56 332.71
  Q 578.33 358.05 550.98 368.86
  C 514.07 383.45 474.13 370.99 448.10 342.27"
/>
<path stroke="#8d97b0" vector-effect="non-scaling-stroke" d="
  M 448.10 342.27
  Q 438.47 330.79 433.05 318.95
  Q 422.56 296.02 425.16 270.25"
/>
<path stroke="#8a8ba3" vector-effect="non-scaling-stroke" d="
  M 425.16 270.25
  C 430.22 232.84 454.75 202.40 490.62 190.90
  Q 510.22 184.62 531.48 187.50
  C 558.66 191.19 582.62 207.16 597.29 230.14
  A 0.71 0.71 0.0 0 0 598.39 230.26
  L 648.75 179.50"
/>
<path stroke="#858584" vector-effect="non-scaling-stroke" d="
  M 648.75 179.50
  Q 649.63 178.90 649.17 178.29
  C 624.85 145.85 586.29 124.83 546.75 118.05
  C 530.80 115.32 514.02 114.36 498.03 116.54
  C 491.66 117.41 485.86 117.92 479.47 119.36
  Q 435.44 129.31 404.02 156.51
  Q 357.41 196.86 349.61 259.92"
/>
<path stroke="#101128" vector-effect="non-scaling-stroke" d="
  M 648.75 179.50
  C 645.90 176.09 643.13 172.67 639.95 169.62
  C 634.58 164.46 629.83 159.32 624.26 155.30
  Q 619.44 151.82 616.00 148.58
  C 614.09 146.78 611.71 145.72 609.16 144.47
  A 21.06 20.63 75.3 0 1 606.02 142.59
  Q 597.98 136.82 595.34 135.66
  Q 586.66 131.83 582.52 130.03
  C 579.01 128.50 575.39 127.81 572.14 126.45
  Q 568.64 124.97 564.34 123.85
  Q 549.21 119.88 537.23 119.13
  Q 533.61 118.90 530.07 118.25
  Q 524.37 117.20 522.85 117.27
  Q 515.67 117.58 510.13 116.92
  A 11.64 11.60 -46.2 0 0 506.74 117.00
  C 503.46 117.56 501.32 118.20 497.67 118.32
  Q 492.40 118.49 487.62 120.12
  Q 484.36 121.23 481.13 121.51
  Q 472.96 122.22 465.16 124.96
  Q 458.74 127.22 455.00 128.50
  Q 451.93 129.55 448.85 131.63
  Q 446.29 133.37 443.73 134.18
  Q 440.20 135.32 436.03 138.03
  C 434.26 139.19 431.87 139.90 430.03 140.62
  A 9.52 9.17 15.4 0 0 427.91 141.77
  C 424.34 144.38 421.09 146.03 417.63 149.03
  C 411.43 154.40 402.27 159.04 396.80 166.05
  Q 394.60 168.87 388.44 174.90
  Q 383.56 179.68 378.88 187.73
  Q 377.28 190.48 376.27 191.99
  Q 374.05 195.29 373.70 196.28
  Q 372.00 201.21 371.20 201.96
  Q 367.78 205.13 367.03 207.09
  Q 363.87 215.26 361.94 219.29
  C 360.12 223.09 359.62 226.54 357.80 230.24
  C 354.60 236.74 353.38 244.59 353.79 251.51
  A 1.94 1.88 59.0 0 1 353.55 252.55
  L 351.95 255.32"
/>
<path stroke="#131d35" vector-effect="non-scaling-stroke" d="
  M 351.95 255.32
  L 350.73 260.90
  A 0.51 0.51 0.0 0 1 349.73 260.85
  L 349.61 259.92"
/>
<path stroke="#172354" vector-effect="non-scaling-stroke" d="
  M 425.16 270.25
  Q 423.82 269.93 423.95 268.99
  Q 424.60 264.38 425.36 257.93
  A 5.86 5.81 -31.8 0 1 425.65 256.72
  L 429.94 244.90
  A 1.04 1.03 18.9 0 0 429.28 243.56
  C 413.66 238.53 397.15 238.89 380.61 239.50
  Q 374.38 239.73 368.45 241.05
  C 360.29 242.86 355.86 248.19 351.95 255.32"
/>
<path stroke="#1e4072" vector-effect="non-scaling-stroke" d="
  M 448.10 342.27
  Q 431.95 342.49 391.56 342.39
  Q 377.13 342.35 360.94 345.83"
/>
</g>
<path fill="#0b0b09" d="
  M 1024.00 0.00
  L 1024.00 559.00
  L 0.00 559.00
  L 0.00 0.00
  L 1024.00 0.00
  Z
  M 268.17 278.47
  C 267.54 412.74 375.77 526.20 510.97 526.83
  C 646.17 527.47 755.46 415.02 756.08 280.75
  C 756.71 146.49 648.48 33.02 513.28 32.39
  C 378.08 31.76 268.79 144.21 268.17 278.47
  Z
  M 976.62 511.58
  C 973.35 514.85 969.87 516.28 965.73 517.80
  Q 965.54 517.87 965.54 518.22
  Q 965.54 518.57 965.73 518.64
  C 969.86 520.16 973.35 521.60 976.61 524.87
  C 979.87 528.13 981.31 531.62 982.83 535.75
  Q 982.90 535.95 983.25 535.95
  Q 983.60 535.95 983.67 535.75
  C 985.19 531.62 986.63 528.13 989.89 524.87
  C 993.16 521.61 996.64 520.18 1000.78 518.66
  Q 1000.97 518.59 1000.97 518.24
  Q 1000.97 517.89 1000.78 517.81
  C 996.65 516.29 993.16 514.86 989.90 511.59
  C 986.64 508.32 985.20 504.84 983.68 500.71
  Q 983.61 500.51 983.26 500.51
  Q 982.91 500.51 982.84 500.70
  C 981.32 504.84 979.88 508.32 976.62 511.58
  Z"
/>
<path fill="#ffffff" d="
  M 513.28 32.39
  C 648.48 33.02 756.71 146.49 756.08 280.75
  C 755.46 415.02 646.17 527.47 510.97 526.83
  C 375.77 526.20 267.54 412.74 268.17 278.47
  C 268.79 144.21 378.08 31.76 513.28 32.39
  Z
  M 349.61 259.92
  Q 344.26 304.60 360.94 345.83
  C 376.06 382.35 403.35 410.28 438.72 428.03
  Q 472.41 444.93 510.23 446.61
  C 563.92 449.00 615.41 425.30 649.35 383.93
  A 0.81 0.81 0.0 0 0 649.29 382.84
  L 598.09 332.58
  A 1.01 1.01 0.0 0 0 596.56 332.71
  Q 578.33 358.05 550.98 368.86
  C 514.07 383.45 474.13 370.99 448.10 342.27
  Q 438.47 330.79 433.05 318.95
  Q 422.56 296.02 425.16 270.25
  C 430.22 232.84 454.75 202.40 490.62 190.90
  Q 510.22 184.62 531.48 187.50
  C 558.66 191.19 582.62 207.16 597.29 230.14
  A 0.71 0.71 0.0 0 0 598.39 230.26
  L 648.75 179.50
  Q 649.63 178.90 649.17 178.29
  C 624.85 145.85 586.29 124.83 546.75 118.05
  C 530.80 115.32 514.02 114.36 498.03 116.54
  C 491.66 117.41 485.86 117.92 479.47 119.36
  Q 435.44 129.31 404.02 156.51
  Q 357.41 196.86 349.61 259.92
  Z"
/>
<path fill="#0b0b09" d="
  M 648.75 179.50
  C 645.90 176.09 643.13 172.67 639.95 169.62
  C 634.58 164.46 629.83 159.32 624.26 155.30
  Q 619.44 151.82 616.00 148.58
  C 614.09 146.78 611.71 145.72 609.16 144.47
  A 21.06 20.63 75.3 0 1 606.02 142.59
  Q 597.98 136.82 595.34 135.66
  Q 586.66 131.83 582.52 130.03
  C 579.01 128.50 575.39 127.81 572.14 126.45
  Q 568.64 124.97 564.34 123.85
  Q 549.21 119.88 537.23 119.13
  Q 533.61 118.90 530.07 118.25
  Q 524.37 117.20 522.85 117.27
  Q 515.67 117.58 510.13 116.92
  A 11.64 11.60 -46.2 0 0 506.74 117.00
  C 503.46 117.56 501.32 118.20 497.67 118.32
  Q 492.40 118.49 487.62 120.12
  Q 484.36 121.23 481.13 121.51
  Q 472.96 122.22 465.16 124.96
  Q 458.74 127.22 455.00 128.50
  Q 451.93 129.55 448.85 131.63
  Q 446.29 133.37 443.73 134.18
  Q 440.20 135.32 436.03 138.03
  C 434.26 139.19 431.87 139.90 430.03 140.62
  A 9.52 9.17 15.4 0 0 427.91 141.77
  C 424.34 144.38 421.09 146.03 417.63 149.03
  C 411.43 154.40 402.27 159.04 396.80 166.05
  Q 394.60 168.87 388.44 174.90
  Q 383.56 179.68 378.88 187.73
  Q 377.28 190.48 376.27 191.99
  Q 374.05 195.29 373.70 196.28
  Q 372.00 201.21 371.20 201.96
  Q 367.78 205.13 367.03 207.09
  Q 363.87 215.26 361.94 219.29
  C 360.12 223.09 359.62 226.54 357.80 230.24
  C 354.60 236.74 353.38 244.59 353.79 251.51
  A 1.94 1.88 59.0 0 1 353.55 252.55
  L 351.95 255.32
  L 350.73 260.90
  A 0.51 0.51 0.0 0 1 349.73 260.85
  L 349.61 259.92
  Q 357.41 196.86 404.02 156.51
  Q 435.44 129.31 479.47 119.36
  C 485.86 117.92 491.66 117.41 498.03 116.54
  C 514.02 114.36 530.80 115.32 546.75 118.05
  C 586.29 124.83 624.85 145.85 649.17 178.29
  Q 649.63 178.90 648.75 179.50
  Z"
/>
<path fill="#141647" d="
  M 648.75 179.50
  L 598.39 230.26
  A 0.71 0.71 0.0 0 1 597.29 230.14
  C 582.62 207.16 558.66 191.19 531.48 187.50
  Q 510.22 184.62 490.62 190.90
  C 454.75 202.40 430.22 232.84 425.16 270.25
  Q 423.82 269.93 423.95 268.99
  Q 424.60 264.38 425.36 257.93
  A 5.86 5.81 -31.8 0 1 425.65 256.72
  L 429.94 244.90
  A 1.04 1.03 18.9 0 0 429.28 243.56
  C 413.66 238.53 397.15 238.89 380.61 239.50
  Q 374.38 239.73 368.45 241.05
  C 360.29 242.86 355.86 248.19 351.95 255.32
  L 353.55 252.55
  A 1.94 1.88 59.0 0 0 353.79 251.51
  C 353.38 244.59 354.60 236.74 357.80 230.24
  C 359.62 226.54 360.12 223.09 361.94 219.29
  Q 363.87 215.26 367.03 207.09
  Q 367.78 205.13 371.20 201.96
  Q 372.00 201.21 373.70 196.28
  Q 374.05 195.29 376.27 191.99
  Q 377.28 190.48 378.88 187.73
  Q 383.56 179.68 388.44 174.90
  Q 394.60 168.87 396.80 166.05
  C 402.27 159.04 411.43 154.40 417.63 149.03
  C 421.09 146.03 424.34 144.38 427.91 141.77
  A 9.52 9.17 15.4 0 1 430.03 140.62
  C 431.87 139.90 434.26 139.19 436.03 138.03
  Q 440.20 135.32 443.73 134.18
  Q 446.29 133.37 448.85 131.63
  Q 451.93 129.55 455.00 128.50
  Q 458.74 127.22 465.16 124.96
  Q 472.96 122.22 481.13 121.51
  Q 484.36 121.23 487.62 120.12
  Q 492.40 118.49 497.67 118.32
  C 501.32 118.20 503.46 117.56 506.74 117.00
  A 11.64 11.60 -46.2 0 1 510.13 116.92
  Q 515.67 117.58 522.85 117.27
  Q 524.37 117.20 530.07 118.25
  Q 533.61 118.90 537.23 119.13
  Q 549.21 119.88 564.34 123.85
  Q 568.64 124.97 572.14 126.45
  C 575.39 127.81 579.01 128.50 582.52 130.03
  Q 586.66 131.83 595.34 135.66
  Q 597.98 136.82 606.02 142.59
  A 21.06 20.63 75.3 0 0 609.16 144.47
  C 611.71 145.72 614.09 146.78 616.00 148.58
  Q 619.44 151.82 624.26 155.30
  C 629.83 159.32 634.58 164.46 639.95 169.62
  C 643.13 172.67 645.90 176.09 648.75 179.50
  Z"
/>
<path fill="#1a2f61" d="
  M 425.16 270.25
  Q 422.56 296.02 433.05 318.95
  Q 438.47 330.79 448.10 342.27
  Q 431.95 342.49 391.56 342.39
  Q 377.13 342.35 360.94 345.83
  Q 344.26 304.60 349.61 259.92
  L 349.73 260.85
  A 0.51 0.51 0.0 0 0 350.73 260.90
  L 351.95 255.32
  C 355.86 248.19 360.29 242.86 368.45 241.05
  Q 374.38 239.73 380.61 239.50
  C 397.15 238.89 413.66 238.53 429.28 243.56
  A 1.04 1.03 18.9 0 1 429.94 244.90
  L 425.65 256.72
  A 5.86 5.81 -31.8 0 0 425.36 257.93
  Q 424.60 264.38 423.95 268.99
  Q 423.82 269.93 425.16 270.25
  Z"
/>
<path fill="#215183" d="
  M 360.94 345.83
  Q 377.13 342.35 391.56 342.39
  Q 431.95 342.49 448.10 342.27
  C 474.13 370.99 514.07 383.45 550.98 368.86
  Q 578.33 358.05 596.56 332.71
  A 1.01 1.01 0.0 0 1 598.09 332.58
  L 649.29 382.84
  A 0.81 0.81 0.0 0 1 649.35 383.93
  C 615.41 425.30 563.92 449.00 510.23 446.61
  Q 472.41 444.93 438.72 428.03
  C 403.35 410.28 376.06 382.35 360.94 345.83
  Z"
/>
<path fill="#858585" d="
  M 983.26 500.51
  Q 983.61 500.51 983.68 500.71
  C 985.20 504.84 986.64 508.32 989.90 511.59
  C 993.16 514.86 996.65 516.29 1000.78 517.81
  Q 1000.97 517.89 1000.97 518.24
  Q 1000.97 518.59 1000.78 518.66
  C 996.64 520.18 993.16 521.61 989.89 524.87
  C 986.63 528.13 985.19 531.62 983.67 535.75
  Q 983.60 535.95 983.25 535.95
  Q 982.90 535.95 982.83 535.75
  C 981.31 531.62 979.87 528.13 976.61 524.87
  C 973.35 521.60 969.86 520.16 965.73 518.64
  Q 965.54 518.57 965.54 518.22
  Q 965.54 517.87 965.73 517.80
  C 969.87 516.28 973.35 514.85 976.62 511.58
  C 979.88 508.32 981.32 504.84 982.84 500.70
  Q 982.91 500.51 983.26 500.51
  Z"
/>
</svg>
